<?xml version="1.0" encoding="UTF-8"?>
<svg id="Layer_2" data-name="Layer 2" xmlns="http://www.w3.org/2000/svg" viewBox="0 0 239.87 43.96">
  <defs>
    <style>
      .cls-1 {
        fill: #ef3d34;
        stroke-width: 0px;
      }

      .cls-2 {
        fill: none;
        stroke: #ef3b33;
        stroke-linecap: round;
        stroke-linejoin: round;
        stroke-width: 5px;
      }
    </style>
  </defs>
  <g id="Layer_1-2" data-name="Layer 1">
    <path class="cls-2" d="M40.71,22.12c-3.76,5.73-16.31,16.96-25.64,15.98-2.71-.28-4.89-1.03-6.86-3.61-6.75-8.86,8.06-14.34,15.47-18.43.76-.42,10.78-4.33,10.44-3.56-2.87,6.56-14.15,22.53-25.14,16.96C-10.81,19.43,20.28,5.8,28.71,3.23"/>
    <g>
      <path class="cls-1" d="M68.08,7.43c-2.69-.19-4.24.78-4.66,2.93h4.13l-1.34,7.63h-4.13l-2.9,16.37h-7.94l2.9-16.37h-2.98l1.3-7.63h3.03c.64-3.55,2.12-6.22,4.45-7.99,2.33-1.78,5.48-2.55,9.45-2.33l-1.3,7.39Z"/>
      <path class="cls-1" d="M77.34,35.03c-2.72,0-5.02-.68-6.89-2.04-1.87-1.36-3.14-3.05-3.82-5.06-.67-2.02-.8-4.13-.38-6.34.64-3.33,2.25-6.14,4.82-8.45,2.58-2.3,5.8-3.46,9.67-3.46s6.77,1.37,8.78,4.1c2.02,2.74,2.72,5.82,2.11,9.24-.58,3.26-2.18,6.08-4.8,8.45-2.62,2.37-5.79,3.55-9.5,3.55ZM77.97,27.35c1.41,0,2.64-.46,3.7-1.39,1.06-.93,1.71-2.13,1.97-3.6.26-1.47.02-2.67-.7-3.6-.72-.93-1.78-1.39-3.19-1.39s-2.59.46-3.65,1.39c-1.06.93-1.71,2.13-1.97,3.6-.26,1.47-.02,2.67.7,3.6.72.93,1.77,1.39,3.14,1.39Z"/>
      <path class="cls-1" d="M104.53,14.85c.74-1.63,1.82-2.86,3.26-3.71,1.44-.85,3.06-1.27,4.85-1.27l-1.49,8.83c-1.82-.26-3.57.06-5.23.96-1.66.9-2.69,2.48-3.09,4.75l.14-.81-1.9,10.75h-7.94l4.25-24h7.94l-.8,4.5Z"/>
      <path class="cls-1" d="M138.68,10.36l-10.08,12.05,6.24,11.95h-8.54l-5.11-10.6-1.87,10.6h-7.94L117.3.76h7.94l-3.37,19.11,7.64-9.51h9.17Z"/>
      <path class="cls-1" d="M155.81,9.69c3.29,0,5.83,1.3,7.61,3.91,1.78,2.61,2.38,5.69,1.8,9.24-.58,3.46-2.01,6.35-4.3,8.69-2.29,2.34-5.11,3.5-8.47,3.5-3.14,0-5.42-1.14-6.86-3.42l-2.18,12.35h-7.94l5.93-33.6h7.94l-.34,1.94c1.82-1.74,4.1-2.61,6.82-2.61ZM157.26,22.36c.29-1.6.06-2.87-.67-3.82-.74-.94-1.86-1.42-3.36-1.42s-2.75.46-3.84,1.37c-1.09.91-1.79,2.14-2.11,3.67l-.1.34c-.22,1.54.05,2.77.82,3.7.77.93,1.89,1.39,3.36,1.39s2.8-.47,3.89-1.42c1.09-.94,1.76-2.22,2.02-3.82Z"/>
      <path class="cls-1" d="M187.84,10.36h7.97l-4.22,24h-7.97l.34-1.87c-1.86,1.7-4.19,2.54-7.01,2.54-3.42,0-5.96-1.3-7.61-3.89-1.65-2.59-2.18-5.63-1.61-9.12.54-3.39,1.98-6.3,4.32-8.71,2.33-2.42,5.23-3.62,8.69-3.62,3.07,0,5.28,1.1,6.62,3.31l.48-2.64ZM176.41,26.15c.74.96,1.86,1.44,3.36,1.44s2.8-.46,3.89-1.39c1.09-.93,1.78-2.16,2.06-3.7v-.14c.26-1.57.02-2.83-.72-3.79-.74-.96-1.87-1.44-3.41-1.44s-2.8.48-3.89,1.44c-1.09.96-1.76,2.22-2.02,3.79-.26,1.57-.02,2.83.72,3.79Z"/>
      <path class="cls-1" d="M205.93,35.03c-5.31,0-8.83-1.97-10.56-5.9l7.01-3.41c.7,1.82,2.03,2.74,3.98,2.74,1.41,0,2.18-.38,2.3-1.15.1-.48-.25-.89-1.03-1.22-.79-.34-1.75-.66-2.88-.98-1.14-.32-2.25-.74-3.34-1.27-1.09-.53-1.94-1.38-2.57-2.54-.62-1.17-.79-2.62-.5-4.34.42-2.4,1.63-4.21,3.65-5.42,2.02-1.22,4.24-1.82,6.67-1.82,2.21,0,4.15.46,5.83,1.37,1.68.91,2.9,2.23,3.67,3.96l-6.77,3.26c-.58-1.44-1.57-2.18-2.98-2.21-1.22-.06-1.92.37-2.11,1.3-.1.51.13.94.67,1.27.54.34,1.25.58,2.11.74.86.16,1.79.42,2.78.79.99.37,1.9.81,2.71,1.32.82.51,1.42,1.32,1.82,2.42.4,1.1.47,2.42.22,3.96-.45,2.46-1.66,4.27-3.65,5.42-1.98,1.15-4.34,1.73-7.06,1.73Z"/>
      <path class="cls-1" d="M227.63,35.03c-5.31,0-8.83-1.97-10.56-5.9l7.01-3.41c.7,1.82,2.03,2.74,3.98,2.74,1.41,0,2.18-.38,2.3-1.15.1-.48-.25-.89-1.03-1.22-.79-.34-1.75-.66-2.88-.98-1.14-.32-2.25-.74-3.34-1.27-1.09-.53-1.94-1.38-2.57-2.54-.62-1.17-.79-2.62-.5-4.34.42-2.4,1.63-4.21,3.65-5.42,2.02-1.22,4.24-1.82,6.67-1.82,2.21,0,4.15.46,5.83,1.37,1.68.91,2.9,2.23,3.67,3.96l-6.77,3.26c-.58-1.44-1.57-2.18-2.98-2.21-1.22-.06-1.92.37-2.11,1.3-.1.51.13.94.67,1.27.54.34,1.25.58,2.11.74.86.16,1.79.42,2.78.79.99.37,1.9.81,2.71,1.32.82.51,1.42,1.32,1.82,2.42.4,1.1.47,2.42.22,3.96-.45,2.46-1.66,4.27-3.65,5.42-1.98,1.15-4.34,1.73-7.06,1.73Z"/>
    </g>
  </g>
</svg>