<?xml version="1.0" encoding="UTF-8"?>
<svg id="Layer_2" data-name="Layer 2" xmlns="http://www.w3.org/2000/svg" viewBox="0 0 239.44 41.81">
  <defs>
    <style>
      .cls-1 {
        fill: none;
        stroke: #ef3b33;
        stroke-linecap: round;
        stroke-linejoin: round;
        stroke-width: 5px;
      }

      .cls-2 {
        fill: #ef3932;
        stroke-width: 0px;
      }
    </style>
  </defs>
  <g id="Layer_1-2" data-name="Layer 1">
    <g>
      <g>
        <path class="cls-2" d="M64.24,10.82c-2.69-.19-4.24.78-4.66,2.93h4.13l-1.34,7.63h-4.13l-2.9,16.37h-7.94l2.9-16.37h-2.98l1.3-7.63h3.03c.64-3.55,2.12-6.22,4.45-7.99,2.33-1.78,5.48-2.55,9.45-2.33l-1.3,7.39Z"/>
        <path class="cls-2" d="M73.5,38.42c-2.72,0-5.02-.68-6.89-2.04-1.87-1.36-3.14-3.05-3.82-5.06-.67-2.02-.8-4.13-.38-6.34.64-3.33,2.25-6.14,4.82-8.45,2.58-2.3,5.8-3.46,9.67-3.46s6.77,1.37,8.78,4.1c2.02,2.74,2.72,5.82,2.11,9.24-.58,3.26-2.18,6.08-4.8,8.45-2.62,2.37-5.79,3.55-9.5,3.55ZM74.12,30.74c1.41,0,2.64-.46,3.7-1.39,1.06-.93,1.71-2.13,1.97-3.6.26-1.47.02-2.67-.7-3.6-.72-.93-1.78-1.39-3.19-1.39s-2.59.46-3.65,1.39c-1.06.93-1.71,2.13-1.97,3.6-.26,1.47-.02,2.67.7,3.6.72.93,1.77,1.39,3.14,1.39Z"/>
        <path class="cls-2" d="M100.69,18.24c.74-1.63,1.82-2.86,3.26-3.71,1.44-.85,3.06-1.27,4.85-1.27l-1.49,8.83c-1.82-.26-3.57.06-5.23.96-1.66.9-2.69,2.48-3.09,4.75l.14-.81-1.9,10.75h-7.94l4.25-24h7.94l-.8,4.5Z"/>
        <path class="cls-2" d="M134.84,13.75l-10.08,12.05,6.24,11.95h-8.54l-5.11-10.6-1.87,10.6h-7.94l5.93-33.6h7.94l-3.37,19.11,7.64-9.51h9.17Z"/>
        <path class="cls-2" d="M154.55,4.15h7.94l-5.93,33.6h-7.95l.33-1.89c-1.89,1.71-4.24,2.56-7.06,2.56-3.42,0-5.96-1.3-7.61-3.89-1.65-2.59-2.18-5.63-1.61-9.12.54-3.39,1.98-6.3,4.32-8.71,2.34-2.42,5.23-3.62,8.69-3.62,3.08,0,5.31,1.11,6.69,3.33l2.16-12.26ZM144.78,30.98c1.47,0,2.74-.45,3.82-1.34,1.07-.89,1.77-2.09,2.09-3.58l.09-.52c.22-1.53-.04-2.75-.79-3.66-.75-.91-1.88-1.36-3.38-1.36s-2.81.48-3.91,1.44c-1.1.96-1.78,2.22-2.04,3.79-.26,1.57,0,2.83.74,3.79.75.96,1.88,1.44,3.38,1.44Z"/>
        <path class="cls-2" d="M182.32,13.75h7.97l-4.22,24h-7.97l.34-1.87c-1.86,1.7-4.19,2.54-7.01,2.54-3.42,0-5.96-1.3-7.61-3.89-1.65-2.59-2.18-5.63-1.61-9.12.54-3.39,1.98-6.3,4.32-8.71,2.33-2.42,5.23-3.62,8.69-3.62,3.07,0,5.28,1.1,6.62,3.31l.48-2.64ZM170.89,29.54c.74.96,1.86,1.44,3.36,1.44s2.8-.46,3.89-1.39c1.09-.93,1.78-2.16,2.06-3.7v-.14c.26-1.57.02-2.83-.72-3.79-.74-.96-1.87-1.44-3.41-1.44s-2.8.48-3.89,1.44c-1.09.96-1.76,2.22-2.02,3.79-.26,1.57-.02,2.83.72,3.79Z"/>
        <path class="cls-2" d="M200.41,38.42c-5.31,0-8.83-1.97-10.56-5.9l7.01-3.41c.7,1.82,2.03,2.74,3.98,2.74,1.41,0,2.18-.38,2.3-1.15.1-.48-.25-.89-1.03-1.22-.79-.34-1.75-.66-2.88-.98-1.14-.32-2.25-.74-3.34-1.27-1.09-.53-1.94-1.38-2.57-2.54-.62-1.17-.79-2.62-.5-4.34.42-2.4,1.63-4.21,3.65-5.42,2.02-1.22,4.24-1.82,6.67-1.82,2.21,0,4.15.46,5.83,1.37,1.68.91,2.9,2.23,3.67,3.96l-6.77,3.26c-.58-1.44-1.57-2.18-2.98-2.21-1.22-.06-1.92.37-2.11,1.3-.1.51.13.94.67,1.27.54.34,1.25.58,2.11.74.86.16,1.79.42,2.78.79.99.37,1.9.81,2.71,1.32.82.51,1.42,1.32,1.82,2.42.4,1.1.47,2.42.22,3.96-.45,2.46-1.66,4.27-3.65,5.42-1.98,1.15-4.34,1.73-7.06,1.73Z"/>
        <path class="cls-2" d="M231.97,13.08c2.59,0,4.58.9,5.96,2.71,1.39,1.81,1.81,4.34,1.27,7.6l-2.53,14.36h-7.94l2.35-13.34c.19-1.28.01-2.23-.53-2.86-.55-.62-1.36-.94-2.45-.94-1.22,0-2.24.37-3.06,1.1-.82.74-1.36,1.82-1.61,3.26v-.06l-2.26,12.83h-7.94l5.93-33.6h7.95l-2.12,12.02c1.82-2.06,4.15-3.09,7-3.09Z"/>
      </g>
      <path class="cls-1" d="M32.73,29.99c-5.38,4.24-9.37,10.19-18.7,9.21-2.71-.28-4.89-1.03-6.86-3.61C.42,26.73,25.58,11.89,33,7.8c.76-.42,1.76.35,1.42,1.12-2.87,6.56-13.91,29.97-26.48,21.65C-10.54,18.3,23.75,3.41,26.62,2.5"/>
    </g>
  </g>
</svg>